<svg width="48" height="48" viewBox="0 0 48 48" fill="none" xmlns="http://www.w3.org/2000/svg">
<rect width="48" height="48" rx="24" fill="#437EF7"/>
<path d="M25.3333 19.8321C27.6336 19.2401 29.3333 17.1519 29.3333 14.6668C29.3333 11.7213 26.9455 9.3335 24 9.3335C21.0544 9.3335 18.6666 11.7213 18.6666 14.6668C18.6666 17.1519 20.3663 19.2401 22.6666 19.8321V22.6668H18.6666C16.4575 22.6668 14.6666 24.4577 14.6666 26.6668V28.1682C12.3663 28.7602 10.6666 30.8484 10.6666 33.3335C10.6666 36.279 13.0544 38.6668 16 38.6668C18.9455 38.6668 21.3333 36.279 21.3333 33.3335C21.3333 30.8484 19.6336 28.7602 17.3333 28.1682V26.6668C17.3333 25.9304 17.9302 25.3335 18.6666 25.3335H29.3333C30.0697 25.3335 30.6666 25.9304 30.6666 26.6668V28.1682C28.3663 28.7602 26.6666 30.8484 26.6666 33.3335C26.6666 36.279 29.0544 38.6668 32 38.6668C34.9455 38.6668 37.3333 36.279 37.3333 33.3335C37.3333 30.8484 35.6336 28.7602 33.3333 28.1682V26.6668C33.3333 24.4577 31.5424 22.6668 29.3333 22.6668H25.3333V19.8321Z" fill="white"/>
</svg>
